<?xml version="1.0" encoding="UTF-8" standalone="no"?>
<!-- Created with Inkscape (http://www.inkscape.org/) -->

<svg
   viewBox="0 0 93.573379 35.661598"
   version="1.1"
   id="svg5"
   inkscape:version="1.1.2 (b8e25be833, 2022-02-05)"
   sodipodi:docname="broken2.svg"
   xmlns:inkscape="http://www.inkscape.org/namespaces/inkscape"
   xmlns:sodipodi="http://sodipodi.sourceforge.net/DTD/sodipodi-0.dtd"
   xmlns="http://www.w3.org/2000/svg"
   xmlns:svg="http://www.w3.org/2000/svg">
  <sodipodi:namedview
     id="namedview7"
     pagecolor="#ffffff"
     bordercolor="#666666"
     borderopacity="1.0"
     inkscape:pageshadow="2"
     inkscape:pageopacity="0.0"
     inkscape:pagecheckerboard="0"
     inkscape:document-units="mm"
     showgrid="false"
     inkscape:zoom="0.74642639"
     inkscape:cx="125.93338"
     inkscape:cy="378.47001"
     inkscape:window-width="1920"
     inkscape:window-height="1016"
     inkscape:window-x="0"
     inkscape:window-y="27"
     inkscape:window-maximized="1"
     inkscape:current-layer="text28499" />
  <defs
     id="defs2" />
  <g
     inkscape:label="Layer 1"
     inkscape:groupmode="layer"
     id="layer1"
     transform="translate(-6.4019977,-4.2149022)">
    <g
       aria-label="Broken"
       id="text28499"
       style="font-size:50.8px;line-height:1.25;font-family:'Broken Glass';-inkscape-font-specification:'Broken Glass, Normal';stroke-width:0.264583">
      <path
         d="m 7.5195977,39.266902 c -0.3048,0 -0.762,0.3048 -0.9144,0.4572 h 0.9144 z m 1.3715999,-0.9144 c -0.4571999,0.2032 -0.6603999,0.762 -0.6603999,1.3716 h 7.0612003 c 3.809999,0 4.825999,-2.6416 4.825999,-5.9436 0,-0.254 0,-1.6256 0,-1.8288 -0.1016,0.1016 -0.8128,0.3048 -0.9144,0.4572 -1.625599,0.9144 -8.788399,5.0292 -10.3123994,5.9436 z m -2.4891999,-9.398 v 10.0584 c 0.3556,-0.1016 1.4732,-0.6604 1.5748,-1.1176 l 2.5400003,-10.414 z m 6.0452003,-2.032 c -3.7592004,0.762 -3.5560004,9.906 -3.7592004,10.7188 h 0.2032 l 4.3688004,-2.6416 h -0.8128 z m 4.4704,-1.6256 c 0,0 -1.4732,0.4572 -2.0828,0.7112 -0.1016,0 -0.4572,0.2032 -0.4572,0.2032 l -0.2032,8.2296 c 0,0 0.1016,0 0.1016,0 1.1684,0 5.841999,-2.1844 5.841999,-3.4036 v -4.7244 z m -10.5156003,-3.2004 v 6.1976 c 0.4572,-0.1524 3.7592003,-0.8128 4.3180003,-1.8288 0.254,-0.8128 0.4572,-1.6256 0.4572,-2.4384 0,-0.2032 0,-0.4572 -0.2032,-0.5588 -0.1016,0 -3.3020003,-1.1176 -4.5720003,-1.3716 z m 5.4864003,2.0828 c -0.1016,0.3048 -0.3556,1.6764 -0.4572,2.032 0,0 0,0.254 0,0.254 0.2032,0 0.9144,-0.1524 0.9144,-0.254 v -2.286 c -0.254,0 -0.3556,0 -0.4572,0.254 z m 6.1468,0.6604 c 0.254,0.5588 1.371599,0.7112 2.082799,0.7112 v -1.3716 z m -3.6576,-0.2032 v 0.6604 c 0.3556,0 0.8128,-0.1016 1.1684,-0.2032 -0.1016,-0.3556 -0.7112,-0.4572 -1.016,-0.4572 0,0 -0.1524,0 -0.1524,0 z m -2.032,-1.3716 c 1.5748,0.1016 2.8448,1.3716 4.4704,1.3716 0.1016,0 3.047999,-0.4572 3.047999,-1.524 0,-1.1176 -1.3716,-2.032 -2.031999,-2.5908 0.5588,-0.254 1.015999,-0.7112 1.371599,-1.1684 0,-0.1016 -0.3556,-0.4572 -0.4572,-0.4572 -0.711199,-0.4572 -3.657599,-2.4892 -4.368799,-2.9464 -0.1016,1.1176 -0.2032,1.8288 -1.1176,2.4892 -0.254,1.016 -0.9144,2.8448 -0.9144,4.3688 0,0.1016 0,0.3048 0,0.4572 z m -5.9436003,-12.8016 v 10.9728 c 0,0 2.4891999,0.762 3.6576003,1.1176 0.4572,0.1016 0.6604,0.254 1.1176,0.254 0.254,0 0.3556,0 0.4572,-0.254 0.1524,-0.5588 0.8128,-3.302 0.9144,-3.8608 0,0 0,-0.254 0,-0.254 0,-0.2032 0,-0.4572 -0.3048,-0.4572 v -3.556 z m 7.9756003,3.8608 c 0,2.286 3.4544,3.6576 5.283199,4.3688 0.1016,-0.254 0.4572,-0.9144 0.4572,-1.1684 v -4.7752 l -0.254,-0.254 c 0,0 -2.946399,-0.5588 -4.114799,-0.6604 0,0 -0.3048,0 -0.4572,0 -0.1016,0 -0.3048,0 -0.4572,0 -0.3048,1.016 -0.4572,1.5748 -0.4572,2.4892 z m -6.6040003,-3.6576 4.3180003,2.8448 v -2.1336 c 0,-0.4572 -3.2004004,-0.7112 -3.8608003,-0.7112 -0.1016,0 -0.3556,0 -0.4572,0 z m 7.3152003,0.254 0.2032,0.2032 c 0,0 3.0988,0.4572 4.368799,0.7112 0.1016,0 0.4572,0 0.5588,0 0,-2.1843999 0.254,-7.3151998 -3.403599,-7.3151998 -0.3556,0 -0.254,0.2032 -0.3556,0.6604 -0.4572,1.7272 -1.3716,5.7403998 -1.3716,5.7403998 z m -8.6868003,-1.3715999 0.4572,0.2032 c 0.1016,0 3.2004003,0.5587999 4.3180003,0.7111999 0.3556,0 1.0668,0.1016 1.0668,0.1016 V 8.8377022 c 0,0 0.4572,0 0.5588,0 1.27,0.254 1.4732,0.8127999 1.5748,2.0827998 0,-0.1524 0.254,-0.6096 0.254,-0.7112 0.4572,-1.7271998 1.3716,-5.6895998 1.3716,-5.6895998 l -0.4572,-0.254 H 6.4019977 Z"
         id="path31697" />
      <path
         d="m 25.95995,22.553702 c 0,0 -0.254,0 -0.254,0 -0.5588,0.1016 -2.032,0.4572 -2.032,0.4572 v 16.7132 h 2.286 c 0.9144,0 1.3716,-2.286 1.3716,-3.3528 0,-0.2032 0,-0.6604 0,-0.762 -0.1016,-1.9812 -0.8128,-10.8712 -0.9144,-12.8016 -0.1016,-0.254 -0.254,-0.254 -0.4572,-0.254 z m 1.5748,16.002 h -0.2032 c 0,0 -0.3556,0.7112 -0.4572,0.9144 0,0 0,0.254 0,0.254 h 0.6604 z m 0.4572,-1.5748 0.254,2.7432 h 1.3716 v -6.4008 z m 3.6576,-8.2296 v 10.9728 h 0.9144 c 0,0 3.0988,-2.4384 4.3688,-3.4544 0.2032,-0.1016 0.6604,-0.6604 0.6604,-0.6604 v -9.6012 c 0,-1.6256 -1.016,-2.7432 -2.286,-3.6576 v -0.254 l 1.6256,-1.5748 v -0.254 c -0.4572,0 -1.3716,0 -1.6256,0.4572 z m 5.9436,7.7724 c -0.5588,0.4572 -2.9464,2.286 -3.4036,2.7432 -0.1016,0.1016 -0.3556,0.3048 -0.4572,0.4572 h 3.2004 c 0.6604,0 0.6604,-1.8288 0.6604,-2.286 0,-0.1524 0,-0.8128 0,-0.9144 z m -10.5156,-13.2588 c 0,3.9624 0.1524,8.0772 0.9144,12.0904 l 1.7272,-3.6576 v -6.5024 c 1.6256,0 1.8288,0.1016 1.9304,1.9304 l 2.9972,-6.4008 h -0.4572 c -0.1016,0 -4.572,0.9144 -6.4008,1.3716 -0.1016,0 -0.5588,0.254 -0.7112,0.254 0,0.1016 0,0.762 0,0.9144 z M 23.67395,4.2657022 V 22.350502 l 2.286,-0.4572 0.3556,-0.3556 -1.27,-17.2719998 z m 1.9304,0 1.27,16.9163998 c 0,0.3556 0.5588,0.254 0.6604,0.254 0.1524,0 0.4572,0 0.4572,0 l 6.4008,-1.3716 c 0.254,0 0.6096,-0.254 0.7112,-0.4572 0.3556,-0.8128 1.9304,-4.2672 2.286,-5.0292 0,-0.1524 0.2032,-0.6096 0.2032,-0.7112 0,0 0,-0.1016 0,-0.1016 0,0 0,-0.1016 0,-0.1016 l -8.6868,-9.3979998 z m 4.2164,4.572 c 0,0 0.1524,0 0.1524,0 0.2032,0 1.4732,0.1016 1.4732,0.7111999 v 9.6011999 c 0,0.5588 -1.6256,0.5588 -1.6256,0.5588 z m 7.7724,6.8579998 -1.8288,3.9116 c 0.1524,0 0.3556,0 0.4572,0 1.6256,0 1.3716,-1.27 1.3716,-2.6416 0,-0.254 0,-1.016 0,-1.27 z m -7.3152,-10.9727998 7.3152,7.7723998 c 0,-0.2032 0,-1.3716 0,-1.5748 0,-4.5719998 -1.3716,-6.6547998 -6.0452,-6.6547998 -0.2032,0 -1.27,0 -1.4732,0 z"
         id="path31699" />
      <path
         d="m 40.844253,38.403302 c -0.254,0.7112 2.2352,1.1684 2.4892,1.1684 h 6.096 c 2.286,0 3.6068,-2.1844 3.6068,-4.318 0,0 0,-0.2032 0,-0.2032 l -5.6388,-1.1684 c 0.1016,0.9144 -0.4572,0.9144 -0.9144,0.9144 -1.4732,0 -0.3556,-0.9144 -1.3716,-1.3716 -0.3048,-0.1016 -1.6764,-0.4572 -2.032,-0.4572 0,0 -0.2032,0 -0.2032,0 -0.254,0 -0.3556,0 -0.4572,0.254 z m -1.473199,-6.096 c 0,0.9144 -0.254,4.5212 1.015999,5.4356 l 1.3208,-4.5212 v -0.4572 c 0,0 -1.4732,-0.3556 -2.031999,-0.4572 0,0 -0.2032,0 -0.3048,0 z m 8.026399,0.9144 5.6388,1.2192 v -1.016 c 0,-2.032 -2.4892,-7.4676 -5.4356,-7.4676 h -0.2032 z m -4.7752,-0.9144 2.4892,0.4572 v -8.128 h -0.2032 z m -0.9144,-9.9568 c -0.2032,-0.1016 -2.235199,1.1176 -2.235199,1.3716 v 7.9248 c 0,0 1.574799,0.3048 2.235199,0.4572 0,0 0.1524,0 0.1524,0 0.2032,0 0.2032,-0.1524 0.3048,-0.4572 l 2.032,-6.8072 v -0.9144 z m 10.4648,6.5532 c 0,0.8128 0.5588,1.9304 0.8636,2.7432 v -2.286 c 0,-0.1016 -0.6604,-0.4572 -0.8636,-0.4572 z m -0.254,-0.3048 c -0.1016,0 -0.1016,0.2032 0,0.2032 0.1016,0 0.1016,-0.2032 0,-0.2032 z m -1.5748,-4.6736 v 0.4572 c 0,0.8128 1.1176,4.064 2.6924,4.064 v -3.81 c 0,0 -1.5748,-0.6096 -2.2352,-0.7112 -0.1016,0 -0.3556,0 -0.4572,0 z m -2.9464,-1.1176 v 2.2352 c 0,0 0.1016,0.254 0.2032,0.254 0.4572,0.2032 2.4892,1.5748 2.9464,1.8288 0,0 0,-0.1524 0,-0.1524 0,-2.3368 -1.1176,-3.6068 -3.1496,-4.1656 z m 2.6924,0.2032 c 0.4572,0.1524 2.286,0.8128 2.7432,0.9144 0,0 0.2032,0 0.2032,0 v -8.5852 l -4.7244,2.9464 v 0.4572 c 0,0.1016 0.762,2.2352 1.1176,3.1496 0.1016,0.1016 0.3556,0.9144 0.6604,1.1176 z m 0,0.5588 c -0.1016,0 -0.1016,0.254 0,0.254 0.1524,0 0.1524,-0.254 0,-0.254 z m -7.6708,-1.6764 c 0.4572,0.5588 1.4732,1.3716 2.1336,1.3716 0,0 0.1016,0 0.1016,0 0,-0.1016 0.254,-0.8128 0.254,-0.9144 0,0 0,-0.1016 0,-0.1016 0,-0.5588 -1.3716,-0.8128 -1.7272,-0.8128 -0.3048,0 -0.6604,0.254 -0.762,0.4572 z m -2.946399,-0.9144 v 1.8288 c 0.457199,-0.1016 1.015999,-0.4572 1.371599,-0.9144 0,0 -0.254,-0.2032 -0.254,-0.2032 -0.1016,-0.1524 -0.914399,-0.6096 -1.117599,-0.7112 z m 7.924799,-2.032 v 3.2004 c 0,0 0.9144,0.3048 1.3716,0.4064 0,0 0.2032,0 0.2032,0 v -0.2032 l -1.3716,-3.6068 z m -7.721599,1.3716 c 0.355599,0.4572 1.371599,1.1176 1.930399,1.1176 0.254,0 0.3556,-0.1016 0.5588,-0.2032 -0.3048,-0.8128 -1.6764,-0.9144 -2.3876,-0.9144 0,0 -0.101599,0 -0.101599,0 z m 4.317999,0.6604 c 0.3556,0.1016 0.8128,0.254 1.1176,0.254 v -0.9144 c -0.4572,0 -0.9144,0.3556 -1.1176,0.6604 z m -1.8288,-16.5099998 c -1.9304,0 -2.692399,2.8448 -2.692399,4.318 V 19.404102 c 0,0.5588 2.692399,1.1176 3.505199,1.1176 0.1016,0 0.3556,0 0.3556,0 l 1.778,-1.1176 v -7.4676 c 0,0 -1.6764,-4.7751998 -2.4892,-6.8071998 0,0 -0.2032,-0.6604 -0.4572,-0.6604 z m 5.2324,13.4619998 c -0.1016,0 -0.1016,0.254 0,0.254 0.1016,0 0.1016,-0.254 0,-0.254 z m 0,-1.6764 0.4572,1.3208 c 0,0 0.1016,0 0.1016,0 0.2032,0 0.3556,-0.1016 0.5588,-0.2032 1.27,-0.6604 4.064,-2.4892 4.064,-2.4892 l 0.4572,-0.4572 V 7.8725022 c 0,-1.1684 -0.762,-3.2004 -2.1336,-3.2004 0,0 -0.1016,0 -0.1016,0 z m -1.016,-7.4675998 c 0.2032,0 0.9144,0.2032 0.9144,0.6604 v 4.5211998 l 2.794,-9.2963998 v -0.4572 h -6.7564 c -0.254,0 -0.254,0.254 -0.254,0.3556 0,0 0,0.1016 0,0.1016 l 2.032,5.4355998 h 0.254 c 0,-0.6603998 0.3048,-1.3207998 1.016,-1.3207998 z"
         id="path31701" />
      <path
         d="m 56.998619,36.015702 c -0.3556,1.016 -0.8128,2.4892 -0.8128,3.6576 h 3.7592 z m 0.2032,-0.7112 c 0.8128,1.0668 2.6416,4.572 4.826,4.572 v -17.5768 c 0,0 -0.1524,-0.3556 -0.254,-0.4572 -0.1016,-0.1016 -0.3556,-0.6096 -0.4572,-0.7112 -0.3556,0.1016 -0.3556,0.7112 -0.4572,0.9144 -0.5588,1.9812 -3.0988,11.3284 -3.6576,13.2588 z m 7.6708,4.3688 h 5.9436 c 0,-1.8288 -0.254,-3.9116 -1.27,-5.4864 l -6.858,-10.8712 v 1.4732 z m -8.5852,-4.3688 c -0.1016,-0.1016 -0.1016,1.0668 0,0.9144 0.1016,-0.1016 0.1016,-0.762 0,-0.9144 z m 0,-1.1176 0.4572,0.4572 3.9116,-14.1732 c 0,0 0,-0.254 0,-0.254 0,-0.3556 -0.6096,-1.3716 -1.0668,-1.3716 0,0 -0.1016,0 -0.1016,0 -0.9144,0.254 -2.9464,0.9144 -2.9464,0.9144 l -0.254,0.254 z m 13.2588,-1.3716 c -0.1016,0 -0.1016,0.2032 0,0.2032 0.1016,0 0.1016,-0.2032 0,-0.2032 z m -0.4572,-0.4572 0.4572,0.4572 -2.286,-11.8872 c 0,0 0,-0.7112 0,-0.8128 0,-1.27 0.4572,-2.3876 0.4572,-3.6576 0,0 0,-0.1016 0,-0.1016 l -5.2324,1.5748 c -0.1524,0.1016 -0.254,0.3556 -0.4572,0.254 -0.3556,0.6604 -0.4572,1.016 -0.4572,1.6764 0,0.3556 0,0.4572 0.2032,0.8128 z m -6.604,-9.398 c -0.1524,0 -0.1524,0.254 0,0.254 0.1016,0 0.1016,-0.254 0,-0.254 z m -6.1976,-9.8044 v 6.0452 c 0.1016,0 0.3556,-0.1016 0.4572,-0.1016 0.4572,-0.1524 2.286,-0.8128 2.7432,-0.9144 z m 4.3688,5.588 c 0,0.1016 0,0.2032 0.2032,0.3556 0.254,-0.1524 0.254,-0.254 0.254,-0.4572 0,0 0,-0.254 0,-0.254 -0.254,0 -0.4572,0.1016 -0.4572,0.3556 z m -4.4704,-7.7724 c 0,0.3556 0.1016,1.016 0.1016,1.016 l 3.6576,5.7404 c 0.1016,0.2032 0.1016,0.2032 0.3556,0.2032 1.1176,0 1.7272,-1.27 1.7272,-2.286 V 5.3833022 l -4.3688,1.8288 c -1.016,0.4572 -1.4732,2.8447998 -1.4732,3.7591998 z m 14.2748,-6.7563998 h -4.572 c 0,0 -0.3556,0.9144 -0.4572,1.3716 -0.3556,1.1684 -2.7432,7.7723998 -2.7432,11.0743998 0,0.1524 0,0.4572 0,0.6096 l 5.2832,-1.7272 z m -6.604,4.3688 c -0.1524,-0.1524 -0.1524,0.5588 0,0.4572 0.1016,-0.1524 0.1016,-0.3556 0,-0.4572 z m -7.5692,-0.7112 v 0.4572 l 0.254,-0.4572 z m 8.7884,-3.6576 c -1.1176,0 -1.016,2.7432 -1.016,3.4544 0,0.1016 0,0.3048 0,0.4572 0.4572,-1.27 1.016,-2.6416 1.016,-3.9116 z m -8.7884,0 v 2.7432 c 0.254,0 0.9144,-0.1016 0.9144,-0.2032 l 1.3716,-2.54 z m 5.842,0 h -2.6416 c 0,0 -0.3556,0.3556 -0.4572,0.4572 -0.1016,0.254 -0.8128,1.3716 -0.9144,1.6256 h 0.254 c 0,0 2.286,-0.9144 3.2004,-1.3716 0.3048,-0.254 0.5588,-0.254 0.5588,-0.7112 z"
         id="path31703" />
      <path
         d="m 74.423018,38.098502 c -0.5588,0 -0.5588,1.1176 -0.5588,1.5748 h 5.9436 l -5.2832,-1.5748 c 0,0 -0.1016,0 -0.1016,0 z m -0.1016,-0.8128 7.5184,2.3876 h 0.9144 v -4.6736 h -3.5052 v -4.4704 c -0.7112,-0.4572 -1.9812,-1.8288 -2.7432,-1.8288 0,0 -0.1524,0 -0.1524,0 z m -0.9144,0.5588 c -0.1016,-0.1016 -0.1016,0.5588 0,0.4572 0.1016,-0.1016 0.1016,-0.3556 0,-0.4572 z m 0,-11.176 v 10.3632 c 0.2032,0 0.4572,-0.3048 0.4572,-0.5588 l 1.8288,-7.5184 c 0,0 0,-0.3556 0,-0.3556 0,-0.8128 -1.7272,-1.9304 -2.1844,-1.9304 0,0 -0.1016,0 -0.1016,0 z m 3.2004,1.1176 c -0.1016,0.5588 1.9304,1.7272 2.6416,1.8288 v -7.2136 h 3.5052 v -2.3876 l -4.1148,-0.6604 z m -3.2004,-2.032 2.286,1.5748 c 0,0 0.1016,0 0.1016,0 0.1016,0 0.3556,0 0.3556,-0.2032 l 1.8288,-7.5692 v -0.2032 c 0,-0.3556 -3.7592,-0.7112 -4.572,-0.7112 z m 5.4864,-7.2136 c 0,0.6604 3.2004,0.8128 3.8608,0.8128 v -1.524 h -3.4036 l -0.254,-0.5588 c 0,0.1016 -0.2032,0.9144 -0.2032,1.1684 0,0 0,0.1016 0,0.1016 z m -5.4864,-7.4168 v 6.604 c 0,0.7112 3.0988,0.7112 4.1148,0.7112 0.1016,0 0.5588,0 0.6604,0 1.0668,-2.54 1.0668,-4.0132 1.0668,-6.5532 0,-0.4572 -0.1524,-2.3875999 -0.1524,-2.8447998 z m 0.6604,-1.0668 c -0.1016,0 -0.1016,0.254 0,0.254 0.1524,0 0.1524,-0.254 0,-0.254 z m 7.112,-3.9623998 c -0.9144,0.4572 -5.0292,2.8448 -5.9436,3.4035999 -0.1016,0.1016 -0.5588,0.3556 -0.7112,0.4572 h 0.254 l 5.6896,-2.0319999 c 0.4572,-0.254 0.7112,-1.3716 0.7112,-1.7272 0,0 0,-0.1016 0,-0.1016 z m -7.7724,-1.8288 v 5.5879999 l 7.7724,-4.4703999 c 0.3556,-0.2032 0.4572,-0.8128 0.4572,-1.1176 z m 7.0612,4.2164 c -0.1016,0 -0.1016,0.2032 0,0.2032 0.1524,0 0.1524,-0.2032 0,-0.2032 z m 2.286,-0.5588 c -0.3048,0 -1.4732,0.2032 -1.4732,0.6604 h 1.4732 z m 0,-2.7432 c -0.9144,0.3048 -1.1176,1.3716 -1.1176,2.286 0.2032,0 1.1176,-0.1524 1.1176,-0.4572 z m -0.4572,-0.9144 v 0.4572 c 0.254,0 0.6096,-0.254 0.6096,-0.4572 z"
         id="path31705" />
      <path
         d="m 88.291376,32.815302 c -0.1016,0 -0.3556,0.254 -0.4572,0.254 -0.5588,0.3556 -1.8288,1.1176 -1.8288,1.1176 v 5.4864 h 0.254 l 2.032,-6.4008 z m 2.7432,-1.6764 c -0.8128,0 -1.5748,0.762 -1.8288,1.4732 l -2.286,7.0612 h 4.1148 z m 2.0828,-0.1524 1.5748,8.6868 h 5.2832 v -4.7752 l -3.9116,-3.9116 c -0.2032,-0.2032 -2.286,-0.5588 -2.9464,-0.5588 z m 4.1148,0.254 2.7432,2.7432 v -2.0828 c 0,0 -0.3556,-0.2032 -0.4572,-0.2032 -0.254,0 -1.6256,-0.3556 -2.0828,-0.4572 0,0 -0.1016,0 -0.1016,0 0,0 -0.1016,0 -0.1016,0 z m -11.2268,-2.286 v 4.318 c 1.6256,0 3.4544,-1.9304 3.4544,-3.5052 0,0 0,-0.1524 0,-0.1524 -0.4572,-0.1016 -2.7432,-0.5588 -3.2004,-0.6604 0,0 -0.1524,0 -0.1524,0 0,0 -0.1016,0 -0.1016,0 z m 4.3688,0.9144 c 0,0 -0.254,0 -0.254,0 l -0.4572,1.3716 c 0.254,-0.1016 1.016,-0.5588 1.1684,-0.7112 0.2032,-0.1016 0.2032,-0.1016 0.2032,-0.3048 0,-0.3556 -0.3556,-0.3556 -0.6604,-0.3556 z m 4.572,-1.1684 c 1.3716,1.7272 2.8448,2.286 5.0292,2.286 v -5.2324 c -0.1524,0 -0.3556,0.2032 -0.4572,0.2032 -0.7112,0.4572 -3.9116,2.286 -4.572,2.7432 z m -1.3716,0.9144 c 0.1016,0.4572 1.1176,0.4572 1.4732,0.4572 0,0 0.1016,0 0.1016,0 l -0.9144,-0.9144 z m -2.54,-2.4892 c -0.2032,0.5588 -0.5588,1.3716 -0.5588,2.032 h 0.5588 z m 1.6256,1.016 c 0,0.3556 -0.1524,0.7112 0.2032,1.016 l 0.9144,-0.4572 -1.1176,-1.1176 c 0,0.1016 0,0.4572 0,0.5588 z m -6.6548,-7.4168 v 7.5184 c 0,0 2.3876,0.4572 3.4544,0.7112 0,0 0.1016,0 0.1016,0 0.2032,0 0.2032,-0.1016 0.3556,-0.4572 0.3048,-0.8128 0.9144,-2.7432 0.9144,-2.7432 z m 5.9436,3.8608 c 0,0 0,0.254 0,0.254 0,0.3556 0.254,1.1176 0.254,1.1176 l 2.286,2.286 c 0,0 0.3048,-0.1016 0.4572,-0.2032 1.3716,-0.8128 4.7752,-2.9972 4.7752,-2.9972 l 0.254,-0.2032 v -5.588 l -5.1816,-1.7272 v 4.318 l -0.762,-3.2004 h -0.254 l -1.8288,5.7404 c 0,0 0,0.1016 0,0.2032 z m 0.4572,2.6416 c -0.1016,0 -0.1016,0.254 0,0.254 0.1016,0 0.1016,-0.254 0,-0.254 z m -6.4008,-7.4168 5.0292,5.0292 v -3.2004 h 0.254 c 0.1016,0.4572 0.2032,1.016 0.4572,1.3716 l 1.9304,-5.9436 -7.6708,-2.54 z m 8.9408,-4.572 5.0292,3.0988 V 4.2657022 h -1.3716 z m 2.7432,2.3876 c -0.1524,0 -0.1524,0.254 0,0.254 0.1016,0 0.1016,-0.254 0,-0.254 z m -2.7432,-1.5748 v 0.762 c 0,0 1.4732,0.6096 2.032,0.7112 0,0 0.254,0 0.254,0 0,0 0.2032,0 0.2032,0 z m -8.9408,-2.1844 7.5692,2.4892 c 0,0 0,-0.1016 0,-0.1016 0,0 0,-0.1016 0,-0.1016 0,-0.3556 -0.254,-1.1684 -0.254,-1.1684 l -7.3152,-4.4196 z m 0,-9.6011998 v 5.4863999 c 0,0 4.6736,2.8447999 6.6548,4.1147999 0.1016,0 0.3048,0.2032 0.4572,0.2032 v -0.2032 c 0,-0.1016 -1.1684,-6.1975998 -1.6256,-8.6867998 0,-0.254 -0.2032,-0.9144 -0.2032,-0.9144 z m 8.9408,0 v 8.8899998 l 2.9464,-8.8899998 z"
         id="path31707" />
    </g>
  </g>
</svg>
