<?xml version="1.0" encoding="UTF-8" standalone="no"?>
<!-- Created with Inkscape (http://www.inkscape.org/) -->

<svg
   width="8.1914635mm"
   height="7.4188929mm"
   viewBox="0 0 8.1914635 7.4188929"
   version="1.1"
   id="svg15187"
   inkscape:version="1.1.2 (76b9e6a115, 2022-02-25)"
   sodipodi:docname="bs_icon.svg"
   xmlns:inkscape="http://www.inkscape.org/namespaces/inkscape"
   xmlns:sodipodi="http://sodipodi.sourceforge.net/DTD/sodipodi-0.dtd"
   xmlns="http://www.w3.org/2000/svg"
   xmlns:svg="http://www.w3.org/2000/svg">
  <sodipodi:namedview
     id="namedview15189"
     pagecolor="#ffffff"
     bordercolor="#666666"
     borderopacity="1.0"
     inkscape:pageshadow="2"
     inkscape:pageopacity="0.0"
     inkscape:pagecheckerboard="0"
     inkscape:document-units="mm"
     showgrid="false"
     inkscape:zoom="28.780405"
     inkscape:cx="15.496655"
     inkscape:cy="14.019955"
     inkscape:window-width="1920"
     inkscape:window-height="1016"
     inkscape:window-x="0"
     inkscape:window-y="27"
     inkscape:window-maximized="1"
     inkscape:current-layer="text15743" />
  <defs
     id="defs15184" />
  <g
     inkscape:label="Layer 1"
     inkscape:groupmode="layer"
     id="layer1"
     transform="translate(-65.777592,-61.31144)">
    <g
       aria-label="BS"
       id="text15743"
       style="font-size:10.5833px;line-height:1.25;stroke-width:0.264583">
      <path
         d="m 66.010425,68.635083 c -0.0635,0 -0.15875,0.0635 -0.1905,0.09525 h 0.1905 z m 0.285749,-0.190499 c -0.09525,0.04233 -0.137583,0.158749 -0.137583,0.285749 h 1.471079 c 0.793747,0 1.005413,-0.550332 1.005413,-1.238246 0,-0.05292 0,-0.338666 0,-0.380999 -0.02117,0.02117 -0.169333,0.0635 -0.190499,0.09525 -0.338666,0.190499 -1.830911,1.047746 -2.14841,1.238246 z m -0.518582,-1.957911 v 2.095494 c 0.07408,-0.02117 0.306916,-0.137583 0.328083,-0.232833 l 0.529165,-2.169576 z m 1.259413,-0.423332 c -0.783164,0.15875 -0.740831,2.063744 -0.783164,2.233076 h 0.04233 l 0.910164,-0.550331 h -0.169333 z m 0.93133,-0.338665 c 0,0 -0.306915,0.09525 -0.433915,0.148166 -0.02117,0 -0.09525,0.04233 -0.09525,0.04233 l -0.04233,1.714495 c 0,0 0.02117,0 0.02117,0 0.243416,0 1.217079,-0.455082 1.217079,-0.709081 v -0.984247 z m -2.190743,-0.666748 v 1.291162 c 0.09525,-0.03175 0.783164,-0.169332 0.899581,-0.380998 0.05292,-0.169333 0.09525,-0.338666 0.09525,-0.507999 0,-0.04233 0,-0.09525 -0.04233,-0.116416 -0.02117,0 -0.687914,-0.232833 -0.952497,-0.285749 z m 1.142997,0.433915 c -0.02117,0.0635 -0.07408,0.349249 -0.09525,0.423332 0,0 0,0.05292 0,0.05292 0.04233,0 0.190499,-0.03175 0.190499,-0.05292 v -0.476248 c -0.05292,0 -0.07408,0 -0.09525,0.05292 z m 1.280579,0.137583 c 0.05292,0.116416 0.285749,0.148166 0.433915,0.148166 v -0.285749 z m -0.761998,-0.04233 v 0.137583 c 0.07408,0 0.169333,-0.02117 0.243416,-0.04233 -0.02117,-0.07408 -0.148166,-0.09525 -0.211666,-0.09525 0,0 -0.03175,0 -0.03175,0 z m -0.423332,-0.285749 c 0.328083,0.02117 0.592665,0.285749 0.931331,0.285749 0.02117,0 0.634998,-0.09525 0.634998,-0.317499 0,-0.232833 -0.285749,-0.423332 -0.423332,-0.539749 0.116416,-0.05292 0.211666,-0.148166 0.285749,-0.243415 0,-0.02117 -0.07408,-0.09525 -0.09525,-0.09525 -0.148166,-0.09525 -0.761997,-0.518582 -0.910164,-0.613831 -0.02117,0.232832 -0.04233,0.380998 -0.232832,0.518581 -0.05292,0.211666 -0.1905,0.592665 -0.1905,0.910164 0,0.02117 0,0.0635 0,0.09525 z m -1.238246,-2.666992 v 2.285993 c 0,0 0.518582,0.158749 0.761998,0.232832 0.09525,0.02117 0.137583,0.05292 0.232832,0.05292 0.05292,0 0.07408,0 0.09525,-0.05292 0.03175,-0.116416 0.169333,-0.687914 0.1905,-0.80433 0,0 0,-0.05292 0,-0.05292 0,-0.04233 0,-0.09525 -0.0635,-0.09525 V 63.45985 Z m 1.661578,0.804331 c 0,0.476248 0.719665,0.761998 1.100663,0.910164 0.02117,-0.05292 0.09525,-0.1905 0.09525,-0.243416 v -0.99483 l -0.05292,-0.05292 c 0,0 -0.613832,-0.116416 -0.857248,-0.137583 0,0 -0.0635,0 -0.09525,0 -0.02117,0 -0.0635,0 -0.09525,0 -0.0635,0.211666 -0.09525,0.328083 -0.09525,0.518582 z m -1.375829,-0.761998 0.899581,0.592665 v -0.444498 c 0,-0.09525 -0.666748,-0.148167 -0.804331,-0.148167 -0.02117,0 -0.07408,0 -0.09525,0 z m 1.523996,0.05292 0.04233,0.04233 c 0,0 0.645581,0.09525 0.910163,0.148166 0.02117,0 0.09525,0 0.116417,0 0,-0.455082 0.05292,-1.523995 -0.709081,-1.523995 -0.07408,0 -0.05292,0.04233 -0.07408,0.137583 -0.09525,0.359832 -0.285749,1.195913 -0.285749,1.195913 z m -1.809745,-0.285749 0.09525,0.04233 c 0.02117,0 0.666748,0.116416 0.89958,0.148166 0.07408,0 0.22225,0.02117 0.22225,0.02117 v -0.359832 c 0,0 0.09525,0 0.116416,0 0.264583,0.05292 0.306916,0.169332 0.328082,0.433915 0,-0.03175 0.05292,-0.127 0.05292,-0.148166 0.09525,-0.359833 0.285749,-1.18533 0.285749,-1.18533 l -0.09525,-0.05292 h -1.904994 z"
         style="font-family:'Broken Glass';-inkscape-font-specification:'Broken Glass, Normal';fill:#808080"
         id="path30575"
         inkscape:export-filename="/home/steve/StudioProjects/broken_symmetry/images/BS.png"
         inkscape:export-xdpi="1588.5916"
         inkscape:export-ydpi="1588.5916" />
      <path
         style="font-family:Baumans;-inkscape-font-specification:'Baumans, Normal';fill:#808080"
         d="m 73.535141,61.31144 v 0.93133 h -1.873244 q -1.068913,0 -1.068913,0.867831 0,0.465665 0.465665,0.793747 0.476248,0.317499 1.280579,0.613831 0.359832,0.137583 0.613831,0.28575 0.254,0.137582 0.507999,0.370415 0.253999,0.232833 0.380999,0.603248 0.126999,0.359832 0.126999,0.836081 0,0.529165 -0.222249,0.952497 -0.222249,0.412748 -0.571498,0.656164 -0.349249,0.232833 -0.719665,0.359833 -0.359832,0.116416 -0.709081,0.126999 -0.148166,0.01058 -0.423332,0.01058 h -1.650994 v -0.93133 h 1.619244 q 0.719665,0 1.174747,-0.296332 0.455082,-0.306916 0.455082,-0.888997 0,-0.28575 -0.127,-0.497416 -0.127,-0.222249 -0.370416,-0.380998 -0.232832,-0.15875 -0.486831,-0.275166 -0.243416,-0.116416 -0.592665,-0.243416 -0.09525,-0.03175 -0.148166,-0.05292 -1.661578,-0.634998 -1.661578,-2.074326 0,-0.888997 0.571498,-1.322913 0.571498,-0.444498 1.492245,-0.444498 z"
         id="path30621"
         inkscape:export-filename="/home/steve/StudioProjects/broken_symmetry/images/BS.png"
         inkscape:export-xdpi="1588.5916"
         inkscape:export-ydpi="1588.5916" />
    </g>
  </g>
</svg>
