<?xml version="1.0" encoding="UTF-8" standalone="no"?>
<!-- Created with Inkscape (http://www.inkscape.org/) -->

<svg
   viewBox="0 0 135.14586 92.912025"
   version="1.1"
   id="svg14"
   inkscape:version="1.1.2 (76b9e6a115, 2022-02-25)"
   sodipodi:docname="insane.svg"
   xmlns:inkscape="http://www.inkscape.org/namespaces/inkscape"
   xmlns:sodipodi="http://sodipodi.sourceforge.net/DTD/sodipodi-0.dtd"
   xmlns="http://www.w3.org/2000/svg"
   xmlns:svg="http://www.w3.org/2000/svg">
  <sodipodi:namedview
     id="namedview16"
     pagecolor="#ffffff"
     bordercolor="#666666"
     borderopacity="1.0"
     inkscape:pageshadow="2"
     inkscape:pageopacity="0.0"
     inkscape:pagecheckerboard="0"
     inkscape:document-units="mm"
     showgrid="false"
     inkscape:zoom="8.6856353"
     inkscape:cx="67.582851"
     inkscape:cy="46.456014"
     inkscape:window-width="1920"
     inkscape:window-height="1016"
     inkscape:window-x="0"
     inkscape:window-y="27"
     inkscape:window-maximized="1"
     inkscape:current-layer="layer1">
    <sodipodi:guide
       position="6.7141217,143.38508"
       orientation="0,210"
       id="guide15108" />
    <sodipodi:guide
       position="216.71412,143.38508"
       orientation="297,0"
       id="guide15110" />
    <sodipodi:guide
       position="216.71412,-153.61492"
       orientation="0,-210"
       id="guide15112" />
    <sodipodi:guide
       position="6.7141217,-153.61492"
       orientation="-297,0"
       id="guide15114" />
  </sodipodi:namedview>
  <defs
     id="defs11" />
  <g
     inkscape:label="Layer 1"
     inkscape:groupmode="layer"
     id="layer1"
     transform="translate(6.7141217,-50.473049)">
    <g
       aria-label="INSANE"
       transform="matrix(3.1185228,-1.5889667,1.5889667,3.1185228,-152.14703,-242.32268)"
       id="text1574"
       style="font-size:10.5833px;line-height:1.25;stroke-width:0.264583">
      <path
         d="m -6.9300853,108.71869 0.8319879,0.23772 0.8371555,-0.11886 0.2997224,0.062 0.3617339,-0.11885 0.056844,0.0568 v 0.48059 q 0,0.11885 -0.1808669,0.11885 l -0.5942771,-0.062 -0.062011,0.062 h -0.056844 l -0.3617339,-0.062 -0.4754216,0.062 -0.180867,-0.062 -0.9560109,0.062 h -0.3565663 l -0.2428784,-0.062 -0.8319879,0.11886 -0.062012,-0.0569 v -0.41857 q 0,-0.1447 0.5994448,-0.18087 l 1.0748663,0.062 q 0,-0.10335 0.2997224,-0.18087 z m 0.1601964,1.48311 h 0.4185778 l 0.1808669,0.11886 0.056844,-0.062 h 0.062011 l 0.062012,0.062 h 0.056844 l 0.4185778,-0.11886 q 0.3565663,0.31006 0.3565663,0.53744 -0.5942771,0 -0.5942771,0.71313 l -0.1188554,0.41858 v 0.48059 q 0,0.45475 0.2377108,0.53743 l -0.062012,0.29972 v 0.59428 l 0.062012,0.53743 -0.2377108,0.66146 0.2997223,1.25056 -0.062011,0.53744 q 0.4185778,0.29972 0.4185778,0.48059 -0.1963699,0.47542 -0.4185778,0.47542 l -0.5994447,-0.29456 -0.5942771,0.11886 -0.5374332,-0.11886 -0.5994447,0.1757 q -0.5064274,0 -0.7183001,-0.35656 v -0.062 l 0.1188554,-0.11885 h 0.2997224 q 0.2377108,-0.80098 0.2377108,-1.79317 h 0.2428785 l -0.062012,-0.29455 q 0,-0.18087 0.4185778,-0.18087 v -0.062 q -0.7183001,0 -0.7183001,-0.41858 v -0.65629 l -0.056844,-0.65629 0.1188554,-0.59944 -0.062012,-0.23771 0.062012,-0.53743 v -0.35657 l -0.5374332,-0.53743 v -0.062 q 0,-0.18087 1.731155,-0.35657 z m -0.3565662,4.8369 q 0,0.18087 -0.180867,0.18087 v 0.0568 q 0.5736066,0 0.8371556,0.12403 l 0.3565662,-0.062 h 0.1240231 v -0.29972 z m -0.072347,3.44164 q 0.1188554,0 0.1188554,0.1757 h 0.1808669 l 0.2377109,-0.1757 0.594277,0.0568 0.4185778,-0.0568 0.5374332,0.0568 0.5426008,-0.0568 0.056844,0.0568 v 0.29972 q 0,0.11885 -0.6562886,0.18086 l 0.056844,0.0568 v 0.062 l -0.056844,0.0568 h -0.1808669 l -0.3565663,-0.0568 -0.1808669,0.11886 -0.4185778,-0.062 h -0.4185778 l -0.2997223,0.062 -1.4934441,-0.18087 -0.2945548,0.11885 -0.062012,-0.0568 v -0.11886 q 0,-0.42891 0.8371555,-0.53743 z"
         style="font-family:'Old Stamper';-inkscape-font-specification:'Old Stamper, Normal'"
         id="path5392" />
      <path
         d="m -4.4444569,108.72386 0.4185777,0.11886 0.062012,-0.062 h 0.056844 q 0.3565663,0.0879 0.3565663,0.18086 l 1.1937218,-0.11885 0.3617339,0.0568 0.4754216,-0.0568 0.5374332,0.0568 0.53743319,-0.0568 0.23771083,0.0568 0.29972235,-0.11885 q 0.35656625,0.18086 0.7131325,0.18086 l 0.35656623,-0.11885 0.3617339,0.0568 0.1188554,-0.1757 q 0.6562886,0 0.6562886,0.23771 l -0.062012,0.1757 h 0.062012 l 0.3565663,-0.0568 0.056844,0.0568 v 0.23771 l -0.1188554,0.12403 -0.3565662,-0.12403 -0.7131325,0.12403 -0.2997224,-0.12403 -0.59944467,0.18087 -1.43143262,-0.18087 -1.01285481,0.12403 H -1.938158 l -0.7131324,-0.12403 -0.5994448,0.12403 -0.2997223,-0.062 -0.2945547,0.062 -0.5374332,-0.062 -0.3565663,0.062 -0.062012,-0.062 v -0.41857 q 0,-0.11886 0.2377108,-0.11886 0,-0.1757 0.1188555,-0.1757 z m 0.2428784,1.48828 h 0.1756993 l 0.7183002,0.23771 0.1188554,-0.1757 q 1.9688658,0 1.9688658,0.65629 0,0.2067 0.59427705,0.71313 l 0.6562886,1.788 q 1.13171025,1.22473 1.13171025,1.79317 l -0.056844,0.0568 0.056844,0.29972 v 0.41858 q 0.180867,0.23771 0.180867,0.59428 -0.08785,0.894 -0.41857782,0.894 H 0.80585187 q 0,0.18086 -0.11885542,0.18086 -1.04386061,-0.21187 -1.3125772,-0.59944 v -0.11886 h 0.11885542 v -0.11885 h -0.11885542 v 0.11885 l -0.23771083,-0.29455 0.0568439,-0.062 v -0.0568 q -0.11885541,0 -0.23771082,-0.36173 -0.2687166,-0.23771 -0.4185778,-0.77514 -0.3255605,-0.14987 -0.8319879,-1.48828 0.2997224,0 0.2997224,-0.23771 0.594277,-0.031 0.594277,-0.48059 v -0.1757 l -0.1808669,-0.062 q -0.1756993,0 -0.1756993,0.29972 l -0.8371556,0.11886 q -0.594277,-0.77515 -0.8939994,-1.73116 -0.8371555,-0.95601 -1.1937218,-1.01285 v -0.18087 q 0.4805893,-0.031 0.4805893,-0.23771 z m 4.88857495,0.11885 q 0.23771083,0.11886 0.65628865,0.11886 l 0.1188554,-0.11886 h 0.1188554 q 0.4495835,0.062 0.4754216,0.23771 v 0.18087 q -0.775144,0.53744 -0.775144,0.83716 v 0.53226 l 0.062012,0.36174 Q 1.13658,114.08786 0.9867188,114.08786 0.68699645,113.85015 0.68699645,113.55043 L 0.80585187,112.95615 0.62498493,112.181 0.74900797,111.76243 0.3872741,111.34385 q 0,-0.65629 -0.23771083,-0.65629 l -0.0568439,-0.0568 v -0.18087 H 0.21157479 Z M -3.6693129,112.181 q 0.4805893,0.74414 0.4805893,1.31258 l -0.062012,0.77515 0.180867,0.77514 -0.180867,1.13171 q 0.180867,0.29972 0.180867,0.65629 h 0.1756993 q 0.3307281,0 0.4185778,0.23771 v 0.18087 q 0,0.29972 -0.1756993,0.35656 l -1.1368779,-0.0568 -0.1756993,0.0568 q -0.5994448,-0.0568 -0.5994448,-0.23771 0,-0.11885 0.2377109,-0.11885 0.1498612,-0.29973 0.3617339,-0.35657 l -0.062012,-0.062 v -0.0568 q 0.1188554,-0.925 0.4185778,-1.25573 l 0.056844,-0.23771 -0.3565663,-1.36942 v -0.65629 h 0.2997224 v -0.062 q -0.2377108,0 -0.2377108,-0.11886 v -0.18086 l 0.1188554,-0.1757 v -0.062 l -0.1188554,-0.1757 v -0.11886 z m 2.3874435,0.47543 v 0.23771 h 0.062012 v -0.23771 z m 0.41857782,2.68716 v 0.0568 l 0.29972235,0.23771 0.17569931,-0.11886 h 1.25573331 v -0.11885 l -0.0620115,-0.0568 v -0.062 l -0.59427708,0.062 h -0.0620115 l -0.11885542,-0.11885 q 0,-0.14986 0.23771083,-0.18087 v -0.062 l -0.41857777,-0.0568 q -0.17569931,0 -0.47542166,0.29973 -0.23771083,0 -0.23771083,0.11885 z m -3.87572012,3.02306 h 0.056844 l 0.180867,0.18087 0.056844,-0.062 0.8939994,0.12402 q 0,-0.18086 0.6562886,-0.24288 l 0.062012,0.18087 h 0.062011 l 0.1756993,-0.11885 h 0.2377109 q 0.5994447,0 0.5994447,0.11885 l 1.36942108,-0.11885 0.0620115,0.0568 v 0.062 q 0,0.18087 -0.29972235,0.18087 v 0.23771 h 0.41857777 l 0.6562886,-0.41858 h 0.41857777 l 0.83198793,-0.11885 0.4185778,0.18086 0.5374332,-0.062 0.056844,0.062 v 0.41341 l -0.056844,0.062 v 0.0568 l -0.4185778,-0.0568 -0.7131325,0.11886 Q 0.50612969,119.0849 -1.4007246,119.0849 h -0.4185777 l -0.2377109,0.0568 -0.056844,-0.0568 h -0.062012 l -0.062012,0.0568 h -0.056844 l -0.3565662,-0.11886 q -0.2428785,0.11886 -0.6562886,0.11886 l -0.3617339,-0.0568 -0.3565663,0.0568 -0.056844,-0.0568 h -0.062011 l -0.2377108,0.0568 h -0.1188554 q -0.4185778,0 -0.4185778,-0.65629 z"
         style="font-family:'Old Stamper';-inkscape-font-specification:'Old Stamper, Normal'"
         id="path5394" />
      <path
         d="m 3.4258387,108.7652 0.5322656,0.0569 0.2997223,-0.0569 0.056844,0.1757 0.062011,-0.0568 h 0.056844 l 0.1756993,0.0568 1.1885542,-0.11885 0.470254,0.11885 q 0.651121,-0.0568 0.7699764,-0.1757 l 0.3565663,0.1757 q 0.8009821,-0.0568 0.8888318,-0.1757 h 0.056844 l 0.1188554,0.11886 v 0.47542 l -0.1188554,0.11369 H 7.5134315 l -0.651121,0.062 -0.5322655,-0.11886 -0.3565663,0.0568 -0.062012,-0.0568 -0.2945547,0.0568 H 5.1466584 l -0.2377108,-0.0568 -0.1808669,0.0568 -0.1756993,-0.0568 -0.1756994,0.0568 -0.5322655,-0.0568 -1.3074096,0.0568 -0.056844,-0.0568 v -0.29455 q 0,-0.0879 0.9456757,-0.35657 z m 1.3642535,1.36426 0.1756993,0.1757 0.1808669,-0.062 0.056844,0.062 v 0.11885 q 0,0.32556 -0.6511209,0.70797 L 4.433526,111.6074 q 0.4134102,0.94567 1.3642535,0.94567 l 0.4134101,0.23771 v 0.11886 q -0.08785,0.35657 -0.4134101,0.35657 l -0.5374332,0.0568 -0.2325432,-0.0568 v 0.11885 q 0.3513986,0 0.3513986,0.3514 l -0.056844,0.062 h 0.5322656 q 0,-0.23771 0.4134101,-0.23771 l 0.3565663,-0.35657 q 0.4134101,0 0.9456757,0.59428 v 0.29456 q 0.1808669,0 0.1808669,0.11885 l -0.062011,0.1757 q 0.1808669,0.29972 0.1808669,0.59428 v 0.0568 q -0.1188554,1.12654 -0.594277,1.53995 -0.4754217,0.88884 -1.1265427,0.88884 -0.5012598,0.1757 -0.9456757,0.1757 l -0.1188554,-0.29456 q 0,-0.23771 0.9456757,-0.53226 v -0.65113 q 0,-0.94567 -1.1833865,-1.06453 l -1.5967967,-0.88883 -0.651121,-1.4211 q 0.1498612,0 0.1756993,-0.41341 l -0.1188554,-0.41341 0.5942771,-0.59427 H 3.0124286 v -0.0569 q 0.1756993,-0.32556 1.245398,-0.88883 h 0.2377109 q 0,-0.29455 0.2945547,-0.29455 z m 2.5424724,0.0568 h 0.1808669 l 0.1188554,0.47542 v 0.29456 l -0.1188554,0.58911 0.1756993,0.76997 q -0.08785,0.26872 -0.3565662,0.41858 H 7.2188768 q -0.1188554,0 -0.180867,-0.71313 -0.4134101,-0.73897 -1.5399527,-1.30224 v -0.11886 q 0,-0.1757 0.594277,-0.29455 0.4754217,0.031 0.7699764,0.29455 H 6.9811659 Q 7.3325646,110.362 7.3325646,110.1863 Z m -4.2581245,4.61986 q 0.3513986,0.29455 0.3513986,0.88366 0.1188554,0 0.4754217,0.88883 0.2945547,0 0.9456757,0.65113 v 0.18086 q -0.056844,0.1757 -0.3513986,0.1757 H 4.376682 l -0.3565662,-0.23771 -0.062012,0.062 h -0.056844 l -0.2945547,-0.18086 h -0.062012 q -0.2635489,0 -0.5322655,0.35656 h -0.056844 q -0.1498612,0 -0.3565663,-1.12654 l 0.056844,-0.65112 v -0.47026 q 0,-0.29972 0.3565663,-0.47542 z m 4.320136,0.11369 q 0,0.23771 -0.4134102,0.29972 v 0.11885 l 0.3513987,0.23772 q 0.3565662,-0.23772 0.3565662,-0.47543 l -0.056844,-0.18086 z m -4.2064482,1.60196 q 0,0.1757 -0.4134102,0.29456 v 0.062 l 0.180867,0.1757 h 0.4134101 v -0.41341 l 0.056844,-0.062 v -0.0568 z m -0.5322656,1.90169 0.062012,0.062 h 0.056844 l 0.180867,-0.062 0.8888318,0.1757 q 0.470254,-0.0258 0.470254,-0.1757 l 0.180867,0.062 0.470254,-0.062 1.245398,0.11885 1.302242,-0.11885 0.056844,0.062 v 0.0568 q 0,0.26872 -0.3513986,0.35657 v 0.0568 l 0.056844,0.062 v 0.0568 l -0.2945548,0.11885 -0.7131325,-0.11885 -0.2377108,0.11885 -1.5347851,-0.11885 -0.5942771,0.062 -0.056844,-0.062 -0.2997224,0.062 H 2.5990184 L 2.480163,119.01777 v -0.47542 q 0,-0.11885 0.1756993,-0.11885 z m 5.6275456,0.11885 h 0.1756993 v 0.47542 q 0,0.1447 -0.7699764,0.1757 v -0.23771 l 0.062011,-0.0568 q 0,-0.11886 0.4134102,-0.11886 0,-0.23771 0.1188554,-0.23771 z"
         style="font-family:'Old Stamper';-inkscape-font-specification:'Old Stamper, Normal'"
         id="path5396" />
      <path
         d="m 11.647533,108.75487 q 1.6123,0 1.6123,0.29972 h 0.118855 q 0.227376,-0.23771 1.080034,-0.23771 0,0.12919 0.480589,0.23771 0.614948,-0.062 0.775144,-0.18087 l 0.06201,0.062 v 0.35657 l -0.118856,0.11886 h -0.361733 l -0.837156,0.12402 -1.674311,-0.12402 -0.418578,0.062 -0.242878,-0.062 -0.05684,0.062 H 11.94209 v -0.062 l -1.912022,0.12402 -0.5374334,-0.12402 -0.062012,0.062 -0.2997223,-0.062 -0.8371556,0.12402 -0.2377108,-0.18087 q 0,-0.48059 0.8939994,-0.48059 l 1.1988897,-0.0568 0.118856,0.11885 h 0.118855 l 0.780312,-0.11885 0.05684,0.0568 h 0.06201 l 0.237711,-0.0568 v 0.11885 h 0.06201 z m 1.4366,1.48311 0.05684,0.0568 -0.05684,0.41858 q 0.03101,0.35656 0.356567,0.7183 v 0.89917 l 0.599444,1.85517 v 0.062 l -0.06201,0.17569 0.361734,1.08004 -0.06201,0.35656 q 0.165364,0 0.242878,0.59945 l -0.06201,0.36173 h 0.06201 q 0.475422,0.17054 0.475422,0.53744 v 0.11885 l -0.180867,0.062 -0.294555,-0.062 q -0.397907,0.18087 -0.842323,0.18087 h -0.175699 l -0.418578,-0.11886 -1.080034,0.11886 q -0.273884,-0.11886 -0.299722,-0.23771 0.299722,-0.37724 0.299722,-0.59945 l -0.118855,-0.41857 0.05684,-0.062 v -0.062 l -0.118856,-0.35656 0.06201,-0.23771 h -0.06201 l -0.7183,0.0568 q -0.599445,-0.0465 -0.599445,-0.18087 V 115.204 l 0.124024,-0.11886 0.05684,0.0568 -0.05684,0.062 v 0.29972 h 0.175699 v -0.062 l -0.05684,-0.1757 h 0.05684 l 0.180867,0.0568 0.180867,-0.0568 0.237711,0.0568 0.180866,-0.11885 -0.480589,-2.63549 -0.05684,-0.35657 0.118856,-0.11886 v -0.18086 q -0.361734,0 -0.361734,-0.59945 v -0.59944 q 0,-0.11886 0.361734,-0.18087 v -0.0568 l 0.237711,0.0568 z m -2.397779,1.6123 V 112.15 l 0.06201,0.48059 -0.361734,1.31774 -0.356566,1.55546 0.05684,0.29972 q -0.1188557,0 -0.1188557,0.47542 l -0.9560109,0.42375 H 8.9500254 L 8.83117,116.57865 q 0.733803,-0.95084 0.8371556,-1.61229 l -0.056844,-0.062 v -0.062 q 0,-0.41858 0.3565662,-0.41858 v -0.17569 H 9.8491989 v -0.12403 l 0.1808671,-0.23771 -0.1188556,-0.18087 q 0.2687166,-0.60978 0.4185776,-1.49344 0.149861,0 0.175699,-0.29972 l 0.06201,-0.062 z m 1.255734,0.36173 q 0,0.11886 -0.237711,0.11886 l -0.05684,0.062 v 0.0568 h 0.118855 l 0.718301,-0.11885 v -0.11886 z m 0.423745,0.47542 v 0.062 l 0.294555,0.062 h 0.661456 v -0.12403 l -0.180867,-0.1757 z m -2.5786456,3.95324 h 0.062011 q 0,0.31522 0.7183006,0.48059 v 0.11885 q 0,0.32556 -0.299722,0.47542 H 9.668332 l -0.4185778,-0.11885 -0.7183001,0.11885 q -0.2377109,-0.24804 -0.2377109,-0.47542 v -0.062 q 0.7803117,-0.23771 1.1988894,-0.23771 h 0.1188555 q 0.041341,-0.29972 0.1756993,-0.29972 z m 1.1988896,1.73632 q 0.661456,0 0.661456,0.29972 v 0.11886 l 1.074866,-0.29973 0.361734,0.062 0.475422,-0.12403 q 0.661456,0.062 0.780312,0.18087 h 0.118855 l 0.180867,-0.11886 h 0.05684 q 0.222208,0.18087 0.418578,0.18087 l 0.480589,-0.24288 h 0.06201 l 0.118856,0.12403 v 0.41857 q 0,0.1757 -1.255734,0.1757 h -0.180866 l -0.242879,-0.0568 -0.237711,0.0568 h -0.05684 l -0.124023,-0.11885 -1.555455,0.18086 -0.356567,-0.062 h -0.480589 l -0.237711,0.062 -0.242878,-0.11885 -0.356566,0.0568 -1.0180229,-0.0568 -1.2557333,0.11885 -0.1808669,-0.062 v -0.11885 l 0.062011,-0.0569 -0.062011,-0.062 v -0.18086 q 0,-0.15503 1.0748663,-0.23772 l 0.2997224,0.062 0.6614564,-0.062 q 0,0.11886 0.180867,0.11886 0.775144,-0.0413 0.775144,-0.23771 z"
         style="font-family:'Old Stamper';-inkscape-font-specification:'Old Stamper, Normal'"
         id="path5398" />
      <path
         d="m 15.87982,108.72386 0.418578,0.11886 0.06201,-0.062 h 0.05684 q 0.356566,0.0879 0.356566,0.18086 l 1.193722,-0.11885 0.361734,0.0568 0.475422,-0.0568 0.537433,0.0568 0.537433,-0.0568 0.237711,0.0568 0.299722,-0.11885 q 0.356566,0.18086 0.713133,0.18086 l 0.356566,-0.11885 0.361734,0.0568 0.118855,-0.1757 q 0.656289,0 0.656289,0.23771 l -0.06201,0.1757 h 0.06201 l 0.356566,-0.0568 0.05684,0.0568 v 0.23771 l -0.118856,0.12403 -0.356566,-0.12403 -0.713132,0.12403 -0.299723,-0.12403 -0.599444,0.18087 -1.431433,-0.18087 -1.012855,0.12403 H 18.38611 l -0.713133,-0.12403 -0.599444,0.12403 -0.299723,-0.062 -0.294555,0.062 -0.537433,-0.062 -0.356566,0.062 -0.06201,-0.062 v -0.41857 q 0,-0.11886 0.23771,-0.11886 0,-0.1757 0.118856,-0.1757 z m 0.242878,1.48828 h 0.1757 l 0.7183,0.23771 0.118855,-0.1757 q 1.968866,0 1.968866,0.65629 0,0.2067 0.594277,0.71313 l 0.656289,1.788 q 1.13171,1.22473 1.13171,1.79317 l -0.05684,0.0568 0.05684,0.29972 v 0.41858 q 0.180867,0.23771 0.180867,0.59428 -0.08785,0.894 -0.418578,0.894 h -0.118855 q 0,0.18086 -0.118856,0.18086 -1.04386,-0.21187 -1.312577,-0.59944 v -0.11886 h 0.118855 v -0.11885 h -0.118855 v 0.11885 l -0.237711,-0.29455 0.05684,-0.062 v -0.0568 q -0.118855,0 -0.237711,-0.36173 -0.268716,-0.23771 -0.418578,-0.77514 -0.32556,-0.14987 -0.831988,-1.48828 0.299723,0 0.299723,-0.23771 0.594277,-0.031 0.594277,-0.48059 v -0.1757 l -0.180867,-0.062 q -0.175699,0 -0.175699,0.29972 l -0.837156,0.11886 q -0.594277,-0.77515 -0.893999,-1.73116 -0.837156,-0.95601 -1.193722,-1.01285 v -0.18087 q 0.480589,-0.031 0.480589,-0.23771 z m 4.888575,0.11885 q 0.237711,0.11886 0.656289,0.11886 l 0.118855,-0.11886 h 0.118856 q 0.449583,0.062 0.475421,0.23771 v 0.18087 q -0.775144,0.53744 -0.775144,0.83716 v 0.53226 l 0.06201,0.36174 q -0.206705,1.60713 -0.356567,1.60713 -0.299722,-0.23771 -0.299722,-0.53743 l 0.118856,-0.59428 -0.180867,-0.77515 0.124023,-0.41857 -0.361734,-0.41858 q 0,-0.65629 -0.237711,-0.65629 l -0.05684,-0.0568 v -0.18087 h 0.118855 z m -4.356309,1.85001 q 0.480589,0.74414 0.480589,1.31258 l -0.06201,0.77515 0.180866,0.77514 -0.180866,1.13171 q 0.180866,0.29972 0.180866,0.65629 h 0.1757 q 0.330728,0 0.418578,0.23771 v 0.18087 q 0,0.29972 -0.1757,0.35656 l -1.136878,-0.0568 -0.175699,0.0568 q -0.599445,-0.0568 -0.599445,-0.23771 0,-0.11885 0.237711,-0.11885 0.149861,-0.29973 0.361734,-0.35657 l -0.06201,-0.062 v -0.0568 q 0.118855,-0.925 0.418577,-1.25573 l 0.05684,-0.23771 -0.356566,-1.36942 v -0.65629 h 0.299722 v -0.062 q -0.237711,0 -0.237711,-0.11886 v -0.18086 l 0.118856,-0.1757 v -0.062 l -0.118856,-0.1757 v -0.11886 z m 2.387443,0.47543 v 0.23771 h 0.06201 v -0.23771 z m 0.418578,2.68716 v 0.0568 l 0.299722,0.23771 0.1757,-0.11886 h 1.255733 v -0.11885 l -0.06201,-0.0568 v -0.062 l -0.594278,0.062 h -0.06201 l -0.118855,-0.11885 q 0,-0.14986 0.23771,-0.18087 v -0.062 l -0.418577,-0.0568 q -0.1757,0 -0.475422,0.29973 -0.237711,0 -0.237711,0.11885 z m -3.87572,3.02306 h 0.05684 l 0.180867,0.18087 0.05684,-0.062 0.893999,0.12402 q 0,-0.18086 0.656289,-0.24288 l 0.06201,0.18087 h 0.06201 l 0.175699,-0.11885 h 0.237711 q 0.599445,0 0.599445,0.11885 l 1.369421,-0.11885 0.06201,0.0568 v 0.062 q 0,0.18087 -0.299722,0.18087 v 0.23771 h 0.418578 l 0.656288,-0.41858 h 0.418578 l 0.831988,-0.11885 0.418578,0.18086 0.537433,-0.062 0.05684,0.062 v 0.41341 l -0.05684,0.062 v 0.0568 l -0.418578,-0.0568 -0.713132,0.11886 Q 20.830394,119.0849 18.92354,119.0849 h -0.418578 l -0.237711,0.0568 -0.05684,-0.0568 h -0.06201 l -0.06201,0.0568 h -0.05684 l -0.356566,-0.11886 q -0.242878,0.11886 -0.656288,0.11886 l -0.361734,-0.0568 -0.356566,0.0568 -0.05684,-0.0568 h -0.06201 l -0.237711,0.0568 h -0.118855 q -0.418578,0 -0.418578,-0.65629 z"
         style="font-family:'Old Stamper';-inkscape-font-specification:'Old Stamper, Normal'"
         id="path5400" />
      <path
         d="m 28.426816,108.67735 0.532266,0.0568 h 0.175699 l 0.118855,0.11885 v 0.41858 q 0,0.11369 -0.470254,0.1757 v -0.062 q 0,-0.1447 0.237711,-0.1757 v -0.29456 l -0.888832,0.35657 q -0.651121,0 -0.651121,0.1757 l -0.713132,-0.062 h -0.470254 l -0.356567,0.11885 -0.532265,-0.11885 -1.064531,0.11885 -0.180867,-0.11885 -0.41341,0.062 h -0.05684 l -0.237711,-0.062 -0.175699,0.062 q -0.594277,-0.0362 -0.594277,-0.1757 v -0.18087 l 0.118855,-0.11885 0.05684,0.18087 h 0.06201 q 0.1757,-0.23772 0.651121,-0.23772 v -0.062 l 0.58911,0.062 h 1.364253 l 0.826821,-0.11885 0.532265,0.0568 z m -1.762161,1.49862 0.06201,0.062 v 0.0568 l -0.118856,0.35657 v 0.062 l 0.118856,0.11369 h 0.118855 q 0,-0.24805 0.237711,-0.47026 l 0.589109,0.0568 0.651121,-0.0568 0.06201,0.0568 v 0.47542 l 0.05684,1.30224 q -0.30489,0.29455 -0.532266,0.29455 l -0.41341,-0.5891 0.05684,-0.18087 -0.651121,-0.58911 v -0.062 h -0.175699 l -0.237711,0.062 q -0.294555,-0.0827 -0.294555,-0.41341 v -0.29972 q 0,-0.15503 0.470254,-0.23771 z m -2.247917,0.11885 0.945675,0.29972 0.299723,-0.18086 0.294554,0.35656 v 0.29456 q 0,0.20153 -0.175699,0.41341 v 0.23771 l 0.05684,0.59428 q 0,0.48575 -0.475422,0.65112 l -0.351398,0.23771 q -0.532266,0 -0.713133,0.29455 l -0.41341,0.0569 v 0.062 q 0.294555,0.24804 0.294555,0.41341 h 0.06201 q 0,-0.26355 0.532266,-0.29456 0,-0.23771 0.41341,-0.23771 l 0.532266,-0.35656 h 0.06201 l 0.294555,0.65112 -0.41341,1.42109 0.05684,0.23771 -0.05684,0.0568 v 0.062 l 0.118855,0.41341 -0.06201,0.0568 v 0.062 l 0.06201,0.0568 v 0.18087 h -0.06201 l 0.06201,0.41341 v 0.70796 q 0,0.13953 -1.069699,0.23771 l -0.532265,-0.29455 h -0.05684 l -0.713133,0.23771 q -0.377236,-0.15503 -0.41341,-0.29972 v -0.1757 q 0,-0.15503 0.41341,-0.23771 l -0.05684,-0.29456 0.1757,-0.53226 -0.1757,-0.59428 q 0.118856,-0.22738 0.118856,-0.65112 v -0.3514 l -0.118856,-0.88883 0.118856,-0.65112 -0.118856,-0.65112 0.118856,-0.83199 q -0.0052,-0.20154 -0.651121,-0.76481 0.671791,-0.41858 1.596797,-0.41858 z m 2.604483,2.07222 h 0.180867 q 0.1757,0.72347 0.351399,2.54764 v 0.23771 l -0.294555,0.29455 h -0.05684 q -0.43408,-0.31005 -0.769976,-1.06453 l -0.237711,-0.23771 v -0.062 q 0,-0.32556 0.470254,-0.53226 l 0.118856,-0.23255 -0.05684,-0.062 v -0.0568 z m 1.245399,2.96105 q 0.155028,0 0.294554,0.82682 l -0.118855,0.35657 v 0.94567 l -0.175699,0.18087 -0.950844,-0.18087 -1.064531,0.11886 v -0.0568 q 0.07235,-0.53226 0.180867,-0.53226 l 0.294555,0.0568 q 0,-0.23771 0.237711,-0.23771 l 0.175699,0.062 q 0.356566,-0.28422 0.713132,-1.12654 z m 0.800982,3.09541 h 0.05684 l 0.175699,0.1757 v 0.47542 l -0.118856,0.11885 h -0.470254 l -0.532265,-0.0568 -0.06201,0.0568 -0.589109,-0.0568 h -0.06201 l -1.534785,0.0568 -0.06201,-0.0568 h -0.05684 l -0.299723,0.0568 -0.589109,-0.11885 -0.475422,0.11885 -0.41341,-0.0568 -0.356566,0.0568 -0.237711,-0.0568 -0.470254,0.0568 -0.237711,-0.1757 0.05684,-0.062 v -0.1757 l -0.05684,-0.18086 h 0.05684 l 0.299723,-0.11369 h 0.23771 q 0.58911,0 0.58911,0.1757 v 0.0568 h 0.118855 v -0.0568 l -0.05684,-0.062 v -0.0568 l 0.1757,-0.0568 0.651121,0.0568 0.05684,-0.0568 h 0.06201 l 0.707965,0.11369 0.475422,-0.11369 0.05684,0.0568 0.299723,-0.0568 h 0.05684 l 0.175699,0.11369 0.237711,-0.0568 0.06201,0.0568 h 0.05684 l 0.06201,-0.0568 h 0.05684 l 0.356566,0.11886 q 0.263549,-0.11886 0.769976,-0.11886 h 0.58911 z"
         style="font-family:'Old Stamper';-inkscape-font-specification:'Old Stamper, Normal'"
         id="path5402" />
    </g>
  </g>
</svg>
