<?xml version="1.0" encoding="UTF-8" standalone="no"?>
<!-- Created with Inkscape (http://www.inkscape.org/) -->

<svg
   viewBox="0 0 137.42979 103.42088"
   version="1.1"
   id="svg5"
   inkscape:version="1.1.2 (b8e25be833, 2022-02-05)"
   sodipodi:docname="sane.svg"
   xmlns:inkscape="http://www.inkscape.org/namespaces/inkscape"
   xmlns:sodipodi="http://sodipodi.sourceforge.net/DTD/sodipodi-0.dtd"
   xmlns="http://www.w3.org/2000/svg"
   xmlns:svg="http://www.w3.org/2000/svg">
  <sodipodi:namedview
     id="namedview7"
     pagecolor="#ffffff"
     bordercolor="#666666"
     borderopacity="1.0"
     inkscape:pageshadow="2"
     inkscape:pageopacity="0.0"
     inkscape:pagecheckerboard="0"
     inkscape:document-units="mm"
     showgrid="false"
     inkscape:zoom="0.75187991"
     inkscape:cx="327.17991"
     inkscape:cy="462.17487"
     inkscape:window-width="1920"
     inkscape:window-height="1016"
     inkscape:window-x="0"
     inkscape:window-y="27"
     inkscape:window-maximized="1"
     inkscape:current-layer="text1089" />
  <defs
     id="defs2" />
  <g
     inkscape:label="Layer 1"
     inkscape:groupmode="layer"
     id="layer1"
     transform="translate(-18.298668,-26.318794)">
    <g
       aria-label="SANE"
       transform="rotate(-27)"
       id="text1089"
       style="font-size:10.5833px;line-height:1.25;stroke-width:0.264583">
      <path
         d="m -17.80907,84.167344 2.554883,0.272851 1.438671,-0.272851 0.272852,0.843359 0.297656,-0.272851 h 0.272852 l 0.843359,0.272851 5.7050781,-0.570508 2.2572266,0.570508 q 3.1253905,-0.272851 3.69589834,-0.843359 L 1.2409294,85.010703 Q 5.085656,84.737852 5.5073356,84.167344 h 0.2728516 l 0.5705078,0.570508 v 2.282031 L 5.7801872,87.565586 H 1.8114373 l -3.1253906,0.297656 -2.5548828,-0.570508 -1.7115234,0.272852 -0.2976563,-0.272852 -1.4138671,0.272852 h -2.2572266 l -1.1410155,-0.272852 -0.868164,0.272852 -0.843359,-0.272852 -0.84336,0.272852 -2.554883,-0.272852 -6.275585,0.272852 -0.272852,-0.272852 v -1.413867 q 0,-0.421679 4.539258,-1.711523 z m 6.548437,6.548437 0.843359,0.84336 0.8681645,-0.297657 0.2728516,0.297657 v 0.570507 q 0,1.562696 -3.1253901,3.398242 l -0.570508,2.282032 q 1.984375,4.539258 6.5484371,4.539258 l 1.984375,1.14102 v 0.5705 q -0.4216797,1.71153 -1.984375,1.71153 l -2.5796874,0.27285 -1.1162107,-0.27285 v 0.5705 q 1.6867185,0 1.6867185,1.68672 l -0.2728516,0.29766 h 2.5548828 q 0,-1.14102 1.984375,-1.14102 l 1.7115234,-1.71152 q 1.98437494,0 4.5392577,2.85254 v 1.41387 q 0.8681641,0 0.8681641,0.5705 l -0.2976563,0.84336 q 0.8681641,1.43868 0.8681641,2.85254 v 0.27285 q -0.5705078,5.40743 -2.85253905,7.3918 -2.28203125,4.26641 -5.40742175,4.26641 -2.4060547,0.84336 -4.5392578,0.84336 l -0.5705078,-1.41387 q 0,-1.14102 4.5392577,-2.55488 v -3.12539 q 0,-4.53926 -5.680273,-5.10977 l -7.664649,-4.26641 -3.12539,-6.82128 q 0.719336,0 0.843359,-1.98438 l -0.570508,-1.984375 2.852539,-2.852539 h -1.141015 v -0.272851 q 0.843359,-1.562696 5.977929,-4.266407 h 1.141016 q 0,-1.413867 1.413867,-1.413867 z m 12.2039062,0.272852 h 0.8681641 l 0.5705078,2.282031 v 1.413867 l -0.5705078,2.827734 0.8433593,3.695895 q -0.4216797,1.28985 -1.7115234,2.00918 H 0.39757009 q -0.57050781,0 -0.86816405,-3.423043 -1.98437494,-3.547071 -7.39179674,-6.250781 v -0.570508 q 0,-0.84336 2.852539,-1.413867 2.2820312,0.148828 3.6958984,1.413867 h 0.57050778 Q 0.9432732,91.831992 0.9432732,90.988633 Z M -19.495789,113.16402 q 1.686719,1.41387 1.686719,4.2416 0.570508,0 2.282031,4.26641 1.413867,0 4.539258,3.12539 v 0.86817 q -0.272852,0.84335 -1.686719,0.84335 h -0.570508 l -1.711523,-1.14101 -0.297656,0.29766 h -0.272852 l -1.413867,-0.86817 h -0.297656 q -1.26504,0 -2.554883,1.71152 h -0.272852 q -0.719336,0 -1.711523,-5.40742 l 0.272851,-3.12539 v -2.25722 q 0,-1.43868 1.711524,-2.28204 z m 20.7367184,0.54571 q 0,1.14101 -1.98437492,1.43867 v 0.57051 l 1.68671872,1.14101 q 1.7115234,-1.14101 1.7115234,-2.28203 l -0.2728515,-0.86816 z m -20.1910154,7.68945 q 0,0.84336 -1.984375,1.41387 v 0.29765 l 0.868164,0.84336 h 1.984375 v -1.98437 l 0.272852,-0.29766 v -0.27285 z m -2.554883,9.12812 0.297657,0.29766 h 0.272851 l 0.868164,-0.29766 4.266406,0.84336 q 2.257227,-0.12402 2.257227,-0.84336 l 0.868164,0.29766 2.257226,-0.29766 5.9779301,0.57051 6.2507812,-0.57051 0.2728515,0.29766 v 0.27285 q 0,1.28985 -1.68671871,1.71153 v 0.27285 l 0.27285156,0.29765 v 0.27285 l -1.41386717,0.57051 -3.42304678,-0.57051 -1.1410157,0.57051 -7.366992,-0.57051 -2.852539,0.29766 -0.272852,-0.29766 -1.438671,0.29766 h -4.539258 l -0.570508,-0.57051 v -2.28203 q 0,-0.57051 0.843359,-0.57051 z m 27.0123046,0.57051 H 6.350695 v 2.28203 q 0,0.69453 -3.6958984,0.84336 v -1.14101 l 0.2976563,-0.27285 q 0,-0.57051 1.9843749,-0.57051 0,-1.14102 0.5705078,-1.14102 z"
         style="font-size:50.8px;font-family:'Old Stamper';-inkscape-font-specification:'Old Stamper, Normal'"
         id="path12143" />
      <path
         d="m 21.655186,84.117734 q 7.739063,0 7.739063,1.438672 h 0.570507 q 1.091407,-1.141015 5.18418,-1.141015 0,0.620117 2.306836,1.141015 2.951758,-0.297656 3.720703,-0.868164 l 0.297656,0.297656 v 1.711524 l -0.570508,0.570508 h -1.736328 l -4.018359,0.595312 -8.036719,-0.595312 -2.009179,0.297656 -1.165821,-0.297656 -0.272851,0.297656 H 23.069053 V 87.26793 L 13.891319,87.863242 11.311632,87.26793 11.013975,87.565586 9.5753036,87.26793 5.5569443,87.863242 4.4159287,86.995078 q 0,-2.306836 4.2912108,-2.306836 l 5.7546875,-0.272851 0.570508,0.570507 h 0.570508 l 3.745507,-0.570507 0.272852,0.272851 h 0.297656 l 1.141016,-0.272851 v 0.570507 h 0.297656 z m 6.895703,7.118946 0.272852,0.272851 -0.272852,2.00918 q 0.148828,1.711523 1.711524,3.447851 v 4.316018 l 2.877343,8.90488 v 0.29766 l -0.297656,0.84336 1.736328,5.18418 -0.297656,1.71152 q 0.79375,0 1.16582,2.87734 l -0.297656,1.73633 h 0.297656 q 2.282031,0.81856 2.282031,2.57969 v 0.57051 l -0.868164,0.29765 -1.413867,-0.29765 q -1.909961,0.86816 -4.043164,0.86816 h -0.843359 l -2.00918,-0.57051 -5.184179,0.57051 q -1.314649,-0.57051 -1.438672,-1.14102 1.438672,-1.81074 1.438672,-2.87734 l -0.570508,-2.00918 0.272851,-0.29765 v -0.29766 l -0.570507,-1.71152 0.297656,-1.14102 h -0.297656 l -3.447852,0.27285 q -2.877344,-0.22324 -2.877344,-0.86816 v -1.71153 l 0.595313,-0.5705 0.272851,0.27285 -0.272851,0.29765 v 1.43868 h 0.843359 V 116.215 l -0.272851,-0.84336 h 0.272851 l 0.868164,0.27285 0.868164,-0.27285 1.141016,0.27285 0.868164,-0.57051 -2.306836,-12.65039 -0.272851,-1.71152 0.570507,-0.57051 v -0.868162 q -1.736328,0 -1.736328,-2.877343 v -2.877344 q 0,-0.570508 1.736328,-0.868164 v -0.272852 l 1.141016,0.272852 z m -11.509375,7.739062 v 1.438668 l 0.297657,2.30684 -1.736328,6.32519 -1.711524,7.46622 0.272852,1.43867 q -0.570508,0 -0.570508,2.28203 l -4.5888672,2.03398 H 8.7071395 l -0.5705078,-0.59531 q 3.5222653,-4.56406 4.0183593,-7.73906 l -0.272852,-0.29766 v -0.29765 q 0,-2.00918 1.711524,-2.00918 v -0.84336 h -0.570508 v -0.59532 l 0.868164,-1.14101 -0.570508,-0.86817 q 1.289844,-2.92695 2.00918,-7.16855 0.719336,0 0.843359,-1.438672 l 0.297657,-0.297656 z m 6.027539,1.736328 q 0,0.57051 -1.141015,0.57051 l -0.272852,0.29765 v 0.27286 h 0.570508 l 3.447852,-0.57051 v -0.57051 z m 2.033985,2.28203 v 0.29766 l 1.413867,0.29765 h 3.175 v -0.59531 l -0.868164,-0.84336 z m -12.377539,18.97559 h 0.297656 q 0,1.51308 3.447852,2.30683 v 0.57051 q 0,1.5627 -1.438672,2.28203 h -2.877344 l -2.00918,-0.57051 -3.4478511,0.57051 q -1.1410156,-1.19062 -1.1410156,-2.28203 v -0.29766 q 3.7455077,-1.14101 5.7546877,-1.14101 h 0.570507 q 0.198438,-1.43867 0.84336,-1.43867 z m 5.754687,8.33437 q 3.175,0 3.175,1.43867 v 0.57051 l 5.159375,-1.43867 1.736328,0.29766 2.282031,-0.59532 q 3.175,0.29766 3.745508,0.86817 h 0.570508 l 0.868164,-0.57051 h 0.272852 q 1.066601,0.86816 2.009179,0.86816 l 2.306836,-1.16582 h 0.297656 l 0.570508,0.59532 v 2.00918 q 0,0.84335 -6.027539,0.84335 h -0.868164 l -1.16582,-0.27285 -1.141016,0.27285 h -0.272851 l -0.595313,-0.5705 -7.466211,0.86816 -1.711523,-0.29766 h -2.306836 l -1.141015,0.29766 -1.165821,-0.57051 -1.711523,0.27285 -4.886524,-0.27285 -6.0275385,0.57051 -0.8681641,-0.29766 v -0.5705 l 0.2976563,-0.27285 -0.2976563,-0.29766 v -0.86816 q 0,-0.74415 5.1593749,-1.14102 l 1.4386717,0.29766 3.175,-0.29766 q 0,0.57051 0.868164,0.57051 3.720703,-0.19844 3.720703,-1.14102 z"
         style="font-size:50.8px;font-family:'Old Stamper';-inkscape-font-specification:'Old Stamper, Normal'"
         id="path12145" />
      <path
         d="m 41.970222,83.968906 2.00918,0.570508 0.297656,-0.297656 h 0.272852 q 1.711523,0.42168 1.711523,0.868164 l 5.729883,-0.570508 1.736328,0.272852 2.282031,-0.272852 2.579687,0.272852 2.579688,-0.272852 1.141016,0.272852 1.438671,-0.570508 q 1.711524,0.868164 3.423047,0.868164 l 1.711524,-0.570508 1.736328,0.272852 0.570508,-0.84336 q 3.150195,0 3.150195,1.141016 l -0.297656,0.843359 h 0.297656 l 1.711523,-0.272851 0.272852,0.272851 v 1.141016 l -0.570508,0.595312 -1.711523,-0.595312 -3.423047,0.595312 -1.438672,-0.595312 -2.877344,0.868164 -6.870898,-0.868164 -4.861719,0.595312 h -0.570508 l -3.423046,-0.595312 -2.877344,0.595312 -1.438672,-0.297656 -1.413867,0.297656 -2.579688,-0.297656 -1.711523,0.297656 -0.297656,-0.297656 v -2.00918 q 0,-0.570507 1.141015,-0.570507 0,-0.84336 0.570508,-0.84336 z m 1.16582,7.14375 h 0.84336 l 3.447851,1.141016 0.570508,-0.84336 q 9.450586,0 9.450586,3.150196 0,0.992187 2.852539,3.423047 l 3.150195,8.582425 q 5.432227,5.87871 5.432227,8.60722 l -0.272852,0.27285 0.272852,1.43868 v 2.00918 q 0.868164,1.14101 0.868164,2.85253 -0.42168,4.29122 -2.00918,4.29122 h -0.570508 q 0,0.86816 -0.570508,0.86816 -5.010546,-1.01699 -6.30039,-2.87734 v -0.57051 h 0.570508 v -0.57051 h -0.570508 v 0.57051 l -1.141016,-1.41387 0.272852,-0.29766 v -0.27285 q -0.570508,0 -1.141016,-1.73632 -1.289844,-1.14102 -2.009179,-3.72071 -1.562696,-0.71933 -3.993555,-7.14375 1.438672,0 1.438672,-1.14101 2.852539,-0.14883 2.852539,-2.30684 v -0.84336 l -0.868164,-0.29765 q -0.84336,0 -0.84336,1.43867 l -4.018359,0.5705 q -2.852539,-3.7207 -4.291211,-8.309565 -4.018359,-4.588868 -5.729883,-4.861719 v -0.868164 q 2.306836,-0.148828 2.306836,-1.141016 z m 23.465234,0.570508 q 1.141016,0.570508 3.150196,0.570508 l 0.570507,-0.570508 h 0.570508 q 2.158008,0.297656 2.282031,1.141016 v 0.868164 q -3.720703,2.579687 -3.720703,4.018359 v 2.554887 l 0.297657,1.73632 q -0.992188,7.71426 -1.711524,7.71426 -1.438672,-1.14101 -1.438672,-2.57969 l 0.570508,-2.85253 -0.868164,-3.72071 0.595313,-2.009178 -1.736328,-2.009179 q 0,-3.150196 -1.141016,-3.150196 l -0.272852,-0.272851 v -0.868164 h 0.570508 z m -20.910351,8.880076 q 2.306836,3.57188 2.306836,6.30039 l -0.297656,3.72071 0.868164,3.7207 -0.868164,5.43223 q 0.868164,1.43867 0.868164,3.15019 h 0.843359 q 1.5875,0 2.00918,1.14102 v 0.86816 q 0,1.43867 -0.843359,1.71152 l -5.457032,-0.27285 -0.843359,0.27285 q -2.877344,-0.27285 -2.877344,-1.14101 0,-0.57051 1.141016,-0.57051 0.719336,-1.43867 1.736328,-1.71152 l -0.297656,-0.29766 v -0.27285 q 0.570508,-4.44004 2.009179,-6.02754 l 0.272852,-1.14102 -1.711523,-6.57324 v -3.15019 h 1.438671 v -0.29766 q -1.141015,0 -1.141015,-0.57051 v -0.86816 l 0.570508,-0.84336 v -0.29766 l -0.570508,-0.84336 v -0.5705 z m 11.459766,2.28203 v 1.14102 h 0.297656 v -1.14102 z m 2.009179,12.89844 v 0.27285 l 1.438672,1.14102 0.843359,-0.57051 h 6.027539 v -0.57051 l -0.297656,-0.27285 v -0.29766 l -2.852539,0.29766 h -0.297656 l -0.570508,-0.57051 q 0,-0.71933 1.141016,-0.86816 v -0.29766 l -2.00918,-0.27285 q -0.843359,0 -2.282031,1.43867 -1.141016,0 -1.141016,0.57051 z m -18.603515,14.51074 h 0.272851 l 0.868165,0.86817 0.272851,-0.29766 4.291211,0.59531 q 0,-0.86816 3.150195,-1.16582 l 0.297656,0.86817 h 0.297657 l 0.843359,-0.57051 h 1.141016 q 2.877343,0 2.877343,0.57051 l 6.573242,-0.57051 0.297657,0.27285 v 0.29766 q 0,0.86816 -1.438672,0.86816 v 1.14102 h 2.00918 l 3.150195,-2.00918 h 2.009179 l 3.993555,-0.57051 2.00918,0.86816 2.579687,-0.29765 0.272852,0.29765 v 1.98438 l -0.272852,0.29765 v 0.27286 l -2.009179,-0.27286 -3.423047,0.57051 Q 65.733112,133.7023 56.580183,133.7023 h -2.00918 l -1.141015,0.27286 -0.272852,-0.27286 H 52.85948 l -0.297657,0.27286 h -0.272851 l -1.711523,-0.57051 q -1.165821,0.57051 -3.150196,0.57051 l -1.736328,-0.27286 -1.711523,0.27286 -0.272852,-0.27286 h -0.297656 l -1.141016,0.27286 h -0.570507 q -2.00918,0 -2.00918,-3.1502 z"
         style="font-size:50.8px;font-family:'Old Stamper';-inkscape-font-specification:'Old Stamper, Normal'"
         id="path12147" />
      <path
         d="m 102.196,83.745664 2.55489,0.272852 h 0.84336 l 0.5705,0.570507 v 2.00918 q 0,0.545703 -2.25722,0.843359 v -0.297656 q 0,-0.694531 1.14101,-0.843359 V 84.88668 l -4.2664,1.711523 q -3.125395,0 -3.125395,0.843359 l -3.423047,-0.297656 h -2.257226 l -1.711524,0.570508 -2.554882,-0.570508 -5.109766,0.570508 -0.868164,-0.570508 -1.984375,0.297656 H 79.47491 l -1.141016,-0.297656 -0.843359,0.297656 Q 74.637996,87.26793 74.637996,86.598203 v -0.868164 l 0.570507,-0.570508 0.272852,0.868164 h 0.297656 q 0.84336,-1.141015 3.125391,-1.141015 v -0.297657 l 2.827734,0.297657 h 6.548437 l 3.96875,-0.570508 2.554883,0.272851 z m -8.458395,7.193359 0.297656,0.297657 v 0.272851 l -0.570508,1.711524 v 0.297656 l 0.570508,0.545703 h 0.570508 q 0,-1.190625 1.141015,-2.257227 l 2.827735,0.272852 3.125391,-0.272852 0.29766,0.272852 v 2.282031 l 0.27285,6.25078 q -1.46348,1.41387 -2.554886,1.41387 L 97.731159,99.198984 98.004011,98.33082 94.87862,95.503086 V 95.20543 h -0.843359 l -1.141016,0.297656 q -1.413867,-0.396875 -1.413867,-1.984375 v -1.438672 q 0,-0.744141 2.257227,-1.141016 z m -10.790039,0.570508 4.539257,1.438672 1.438672,-0.868164 1.413867,1.711523 v 1.413868 q 0,0.967382 -0.843359,1.984375 v 1.141015 l 0.272852,2.85254 q 0,2.33164 -2.282032,3.12539 l -1.686718,1.14102 q -2.554883,0 -3.423047,1.41386 l -1.984375,0.27285 v 0.29766 q 1.413867,1.19063 1.413867,1.98438 h 0.297656 q 0,-1.26504 2.554883,-1.41387 0,-1.14102 1.984375,-1.14102 l 2.554883,-1.71152 h 0.297656 l 1.413867,3.12539 -1.984375,6.82129 0.272852,1.14101 -0.272852,0.27286 v 0.29765 l 0.570508,1.98438 -0.297656,0.27285 v 0.29765 l 0.297656,0.27286 v 0.86816 h -0.297656 l 0.297656,1.98438 v 3.39824 q 0,0.66972 -5.13457,1.14101 l -2.554883,-1.41386 h -0.272851 l -3.423047,1.14101 q -1.810742,-0.74414 -1.984375,-1.43867 v -0.84336 q 0,-0.74414 1.984375,-1.14102 l -0.272852,-1.41386 0.84336,-2.55489 -0.84336,-2.85253 q 0.570508,-1.09141 0.570508,-3.12539 v -1.68672 l -0.570508,-4.26641 0.570508,-3.12539 -0.570508,-3.12539 0.570508,-3.993555 q -0.02481,-0.967383 -3.125391,-3.671094 3.22461,-2.00918 7.664649,-2.00918 z m 12.501562,9.946679 h 0.868164 q 0.843359,3.47266 1.686719,12.22871 v 1.14102 l -1.413867,1.41386 h -0.272852 q -2.083594,-1.48828 -3.695898,-5.10976 l -1.141016,-1.14102 v -0.29765 q 0,-1.5627 2.257227,-2.55489 l 0.570507,-1.11621 -0.272851,-0.29765 v -0.27285 z m 5.977932,14.21309 q 0.74414,0 1.41386,3.96875 l -0.5705,1.71152 v 4.53926 l -0.84336,0.86816 -4.564065,-0.86816 -5.109765,0.57051 v -0.27286 q 0.347265,-2.55488 0.868164,-2.55488 l 1.413867,0.27285 q 0,-1.14101 1.141015,-1.14101 l 0.84336,0.29765 q 1.711523,-1.36425 3.423047,-5.40742 z m 3.84472,14.858 h 0.27286 l 0.84336,0.84336 v 2.28203 l -0.57051,0.57051 h -2.25723 l -2.55488,-0.27285 -0.29766,0.27285 -2.827733,-0.27285 h -0.297656 l -7.366992,0.27285 -0.297656,-0.27285 h -0.272852 l -1.438672,0.27285 -2.827734,-0.57051 -2.282031,0.57051 -1.984375,-0.27285 -1.711524,0.27285 -1.141015,-0.27285 -2.257227,0.27285 -1.141015,-0.84336 0.272851,-0.29765 v -0.84336 l -0.272851,-0.86817 h 0.272851 l 1.438672,-0.5457 h 1.141016 q 2.827734,0 2.827734,0.84336 v 0.27285 h 0.570508 v -0.27285 l -0.272852,-0.29766 v -0.27285 l 0.84336,-0.27285 3.12539,0.27285 0.272852,-0.27285 h 0.297656 l 3.398242,0.5457 2.282031,-0.5457 0.272852,0.27285 1.438672,-0.27285 h 0.272851 l 0.84336,0.5457 1.141015,-0.27285 0.297657,0.27285 h 0.272851 l 0.297656,-0.27285 h 0.272852 l 1.711523,0.57051 q 1.265039,-0.57051 3.695903,-0.57051 h 2.82773 z"
         style="font-size:50.8px;font-family:'Old Stamper';-inkscape-font-specification:'Old Stamper, Normal'"
         id="path12149" />
    </g>
  </g>
</svg>
