<?xml version="1.0" encoding="UTF-8" standalone="no"?>
<!-- Created with Inkscape (http://www.inkscape.org/) -->

<svg
   viewBox="0 0 208.68605 47.142399"
   version="1.1"
   id="svg5"
   inkscape:version="1.1.2 (b8e25be833, 2022-02-05)"
   sodipodi:docname="symmetry2.svg"
   xmlns:inkscape="http://www.inkscape.org/namespaces/inkscape"
   xmlns:sodipodi="http://sodipodi.sourceforge.net/DTD/sodipodi-0.dtd"
   xmlns="http://www.w3.org/2000/svg"
   xmlns:svg="http://www.w3.org/2000/svg">
  <sodipodi:namedview
     id="namedview7"
     pagecolor="#ffffff"
     bordercolor="#666666"
     borderopacity="1.0"
     inkscape:pageshadow="2"
     inkscape:pageopacity="0.0"
     inkscape:pagecheckerboard="0"
     inkscape:document-units="mm"
     showgrid="false"
     inkscape:zoom="0.74642639"
     inkscape:cx="148.70857"
     inkscape:cy="394.54661"
     inkscape:window-width="1920"
     inkscape:window-height="1016"
     inkscape:window-x="0"
     inkscape:window-y="27"
     inkscape:window-maximized="1"
     inkscape:current-layer="text20999" />
  <defs
     id="defs2" />
  <g
     inkscape:label="Layer 1"
     inkscape:groupmode="layer"
     id="layer1"
     transform="translate(-0.48437352,0.13911629)">
    <g
       aria-label="Symmetry"
       id="text20999"
       style="font-size:50.8px;line-height:1.25;font-family:Baumans;-inkscape-font-specification:'Baumans, Normal';stroke-width:0.264583">
      <path
         d="M 19.686773,-0.13911629 V 4.3312836 h -8.9916 q -5.1307996,0 -5.1307996,4.1656 0,2.2352004 2.2352,3.8100004 2.2859996,1.524 6.1467996,2.946399 1.7272,0.6604 2.9464,1.3716 1.2192,0.6604 2.4384,1.778 1.2192,1.1176 1.8288,2.8956 0.6096,1.7272 0.6096,4.0132 0,2.54 -1.0668,4.572 -1.0668,1.9812 -2.7432,3.1496 -1.6764,1.1176 -3.4544,1.7272 -1.7272,0.5588 -3.4036,0.6096 -0.7112,0.0508 -2.0319996,0.0508 H 1.1447735 v -4.4704 h 7.7723999 q 3.4543996,0 5.6387996,-1.4224 2.1844,-1.4732 2.1844,-4.2672 0,-1.3716 -0.6096,-2.3876 -0.6096,-1.0668 -1.778,-1.8288 -1.1176,-0.762 -2.3368,-1.3208 -1.1684,-0.5588 -2.8447996,-1.1684 -0.4572,-0.1524 -0.7112,-0.254 -7.97559988,-3.048 -7.97559988,-9.9567994 0,-4.2672 2.74319998,-6.3499999 2.7431999,-2.13359999 7.1627995,-2.13359999 z"
         id="path31773" />
      <path
         d="m 46.305959,11.036884 h -4.4704 v 12.750799 q 0,4.1148 -1.27,5.7404 -1.27,1.6256 -4.6736,1.6256 h -5.334 V 11.036884 h -4.4704 v 23.164799 q 0,6.35 3.3528,9.5504 3.302,3.2512 10.414,3.2512 h 3.6576 v -4.2672 h -3.2004 q -9.2964,0 -9.7536,-7.3152 h 4.2672 q 6.6548,0 9.0932,-2.3368 2.3876,-2.3368 2.3876,-9.4996 z"
         id="path31775" />
      <path
         d="m 52.401916,11.036884 h 22.4028 q 3.6068,0 5.7404,1.3716 2.1844,1.3716 2.8448,3.555999 0.7112,2.1844 0.7112,5.2324 v 14.224 h -4.4704 v -14.224 q 0,-3.9624 -2.3876,-5.2324 -1.2192,-0.6604 -4.9276,-0.6604 h -2.0828 v 20.1168 h -4.4704 v -20.1168 h -8.89 v 20.1168 h -4.4704 z"
         id="path31777" />
      <path
         d="m 90.451049,11.036884 h 22.402801 q 3.6068,0 5.7404,1.3716 2.1844,1.3716 2.8448,3.555999 0.7112,2.1844 0.7112,5.2324 v 14.224 h -4.4704 v -14.224 q 0,-3.9624 -2.3876,-5.2324 -1.2192,-0.6604 -4.9276,-0.6604 h -2.0828 v 20.1168 h -4.4704 v -20.1168 h -8.890001 v 20.1168 h -4.4704 z"
         id="path31779" />
      <path
         d="m 140.18417,10.528884 q 8.636,0.3556 8.636,7.162799 0,8.4836 -11.12519,8.4836 h -2.0828 v -3.9116 h 2.43839 q 3.4036,0 4.7244,-1.016 1.3208,-1.0668 1.3208,-3.5052 0,-1.5748 -1.1684,-2.3368 -1.1684,-0.8128 -2.9972,-0.8128 -3.60679,0 -5.68959,2.54 -2.032,2.54 -2.032,6.096 0,3.7592 2.1844,6.096 2.2352,2.3368 5.79119,2.3368 3.2004,0 5.2324,-1.5748 l 3.048,2.9972 q -3.5052,2.8448 -8.2804,2.8448 -5.79119,0 -9.24559,-3.4036 -3.4544,-3.4036 -3.4544,-8.7884 0,-5.9944 3.4036,-9.7028 3.4036,-3.708399 9.29639,-3.505199 z"
         id="path31781" />
      <path
         d="m 151.36014,15.304083 9.0932,-9.0931994 v 4.8260004 h 6.858 v 4.267199 h -6.858 v 10.4648 q 0,1.778 0.5588,2.9464 0.6096,1.1684 1.7272,1.6764 1.1176,0.4572 2.0828,0.6096 1.016,0.1524 2.4892,0.1524 v 4.2672 q -5.842,0 -8.636,-2.2352 -2.794,-2.2352 -2.794,-7.4168 v -10.4648 z"
         id="path31783" />
      <path
         d="m 171.3753,35.420883 v -13.8684 q 0,-5.842 2.1844,-8.077199 1.0668,-1.1176 2.5908,-1.6764 1.524,-0.5588 2.6416,-0.6604 1.1684,-0.1016 3.1496,-0.1016 h 4.4704 v 4.267199 h -5.3848 q -1.016,0 -1.5748,0.0508 -0.5588,0.0508 -1.3208,0.3556 -0.762,0.3048 -1.3208,0.9652 -0.9652,1.2192 -0.9652,4.8768 v 13.8684 z"
         id="path31785" />
      <path
         d="m 188.95202,11.036884 h 4.4704 v 12.750799 q 0,4.1148 1.27,5.7404 1.27,1.6256 4.6736,1.6256 h 5.334 V 11.036884 h 4.4704 v 23.164799 q 0,6.35 -3.3528,9.5504 -3.302,3.2512 -10.414,3.2512 h -3.6576 v -4.2672 h 3.2004 q 9.2964,0 9.7536,-7.3152 h -4.2672 q -6.6548,0 -9.0932,-2.3368 -2.3876,-2.3368 -2.3876,-9.4996 z"
         id="path31787" />
    </g>
  </g>
</svg>
